solid CADClick
facet normal 0.991 -0 0.131
 outer loop
  vertex -3.284 -205 -0.88
  vertex -3.284 205 -0.88
  vertex -3.4 -205 0
 endloop
endfacet
facet normal 0.991 0 0.131
 outer loop
  vertex -3.4 -205 0
  vertex -3.284 205 -0.88
  vertex -3.4 205 -0
 endloop
endfacet
facet normal 0.991 -0 -0.131
 outer loop
  vertex -3.4 -205 0
  vertex -3.4 205 -0
  vertex -3.284 -205 0.88
 endloop
endfacet
facet normal 0.991 0 -0.131
 outer loop
  vertex -3.284 -205 0.88
  vertex -3.4 205 -0
  vertex -3.284 205 0.88
 endloop
endfacet
facet normal 0.924 0 -0.383
 outer loop
  vertex -3.284 -205 0.88
  vertex -3.284 205 0.88
  vertex -2.944 205 1.7
 endloop
endfacet
facet normal 0.924 -0 0.383
 outer loop
  vertex -3.284 -205 -0.88
  vertex -2.944 -205 -1.7
  vertex -3.284 205 -0.88
 endloop
endfacet
facet normal 0.924 0 0.383
 outer loop
  vertex -3.284 205 -0.88
  vertex -2.944 -205 -1.7
  vertex -2.944 205 -1.7
 endloop
endfacet
facet normal 0.793 -0 0.609
 outer loop
  vertex -2.944 -205 -1.7
  vertex -2.404 -205 -2.404
  vertex -2.944 205 -1.7
 endloop
endfacet
facet normal 0.793 0 0.609
 outer loop
  vertex -2.944 205 -1.7
  vertex -2.404 -205 -2.404
  vertex -2.404 205 -2.404
 endloop
endfacet
facet normal 0.609 0 0.793
 outer loop
  vertex -2.404 205 -2.404
  vertex -2.404 -205 -2.404
  vertex -1.7 205 -2.944
 endloop
endfacet
facet normal 0.609 0 0.793
 outer loop
  vertex -1.7 205 -2.944
  vertex -2.404 -205 -2.404
  vertex -1.7 -205 -2.944
 endloop
endfacet
facet normal 0.383 0 0.924
 outer loop
  vertex -1.7 205 -2.944
  vertex -1.7 -205 -2.944
  vertex -0.88 -205 -3.284
 endloop
endfacet
facet normal 0.383 0 0.924
 outer loop
  vertex -1.7 205 -2.944
  vertex -0.88 -205 -3.284
  vertex -0.88 205 -3.284
 endloop
endfacet
facet normal 0.131 0 0.991
 outer loop
  vertex -0.88 205 -3.284
  vertex -0.88 -205 -3.284
  vertex 0 -205 -3.4
 endloop
endfacet
facet normal 0.131 0 0.991
 outer loop
  vertex -0.88 205 -3.284
  vertex 0 -205 -3.4
  vertex 0 205 -3.4
 endloop
endfacet
facet normal -0.131 0 0.991
 outer loop
  vertex 0 205 -3.4
  vertex 0 -205 -3.4
  vertex 0.88 205 -3.284
 endloop
endfacet
facet normal -0.131 0 0.991
 outer loop
  vertex 0 -205 -3.4
  vertex 0.88 -205 -3.284
  vertex 0.88 205 -3.284
 endloop
endfacet
facet normal -0.383 0 0.924
 outer loop
  vertex 0.88 205 -3.284
  vertex 0.88 -205 -3.284
  vertex 1.7 -205 -2.944
 endloop
endfacet
facet normal -0.383 0 0.924
 outer loop
  vertex 0.88 205 -3.284
  vertex 1.7 -205 -2.944
  vertex 1.7 205 -2.944
 endloop
endfacet
facet normal -0.609 0 0.793
 outer loop
  vertex 1.7 205 -2.944
  vertex 1.7 -205 -2.944
  vertex 2.404 -205 -2.404
 endloop
endfacet
facet normal -0.609 0 0.793
 outer loop
  vertex 1.7 205 -2.944
  vertex 2.404 -205 -2.404
  vertex 2.404 205 -2.404
 endloop
endfacet
facet normal -0.793 0 0.609
 outer loop
  vertex 2.404 205 -2.404
  vertex 2.404 -205 -2.404
  vertex 2.944 -205 -1.7
 endloop
endfacet
facet normal -0.793 0 0.609
 outer loop
  vertex 2.404 205 -2.404
  vertex 2.944 -205 -1.7
  vertex 2.944 205 -1.7
 endloop
endfacet
facet normal -0.924 0 0.383
 outer loop
  vertex 2.944 205 -1.7
  vertex 2.944 -205 -1.7
  vertex 3.284 205 -0.88
 endloop
endfacet
facet normal -0.924 0 0.383
 outer loop
  vertex 2.944 -205 -1.7
  vertex 3.284 -205 -0.88
  vertex 3.284 205 -0.88
 endloop
endfacet
facet normal -0.991 0 0.131
 outer loop
  vertex 3.284 205 -0.88
  vertex 3.284 -205 -0.88
  vertex 3.4 -205 0
 endloop
endfacet
facet normal -0.991 0 0.131
 outer loop
  vertex 3.284 205 -0.88
  vertex 3.4 -205 0
  vertex 3.4 205 0
 endloop
endfacet
facet normal -0.991 -0 -0.131
 outer loop
  vertex 3.4 205 0
  vertex 3.4 -205 0
  vertex 3.284 -205 0.88
 endloop
endfacet
facet normal -0.991 0 -0.131
 outer loop
  vertex 3.4 205 0
  vertex 3.284 -205 0.88
  vertex 3.284 205 0.88
 endloop
endfacet
facet normal -0.924 -0 -0.383
 outer loop
  vertex 3.284 205 0.88
  vertex 3.284 -205 0.88
  vertex 2.944 205 1.7
 endloop
endfacet
facet normal -0.924 0 -0.383
 outer loop
  vertex 3.284 -205 0.88
  vertex 2.944 -205 1.7
  vertex 2.944 205 1.7
 endloop
endfacet
facet normal -0.793 -0 -0.609
 outer loop
  vertex 2.944 205 1.7
  vertex 2.944 -205 1.7
  vertex 2.404 -205 2.404
 endloop
endfacet
facet normal -0.793 0 -0.609
 outer loop
  vertex 2.944 205 1.7
  vertex 2.404 -205 2.404
  vertex 2.404 205 2.404
 endloop
endfacet
facet normal -0.609 -0 -0.793
 outer loop
  vertex 2.404 205 2.404
  vertex 2.404 -205 2.404
  vertex 1.7 -205 2.944
 endloop
endfacet
facet normal -0.609 0 -0.793
 outer loop
  vertex 2.404 205 2.404
  vertex 1.7 -205 2.944
  vertex 1.7 205 2.944
 endloop
endfacet
facet normal -0.383 -0 -0.924
 outer loop
  vertex 1.7 205 2.944
  vertex 1.7 -205 2.944
  vertex 0.88 -205 3.284
 endloop
endfacet
facet normal -0.383 0 -0.924
 outer loop
  vertex 1.7 205 2.944
  vertex 0.88 -205 3.284
  vertex 0.88 205 3.284
 endloop
endfacet
facet normal -0.131 -0 -0.991
 outer loop
  vertex 0.88 205 3.284
  vertex 0.88 -205 3.284
  vertex 0 205 3.4
 endloop
endfacet
facet normal -0.131 0 -0.991
 outer loop
  vertex 0.88 -205 3.284
  vertex 0 -205 3.4
  vertex 0 205 3.4
 endloop
endfacet
facet normal 0.131 0 -0.991
 outer loop
  vertex 0 205 3.4
  vertex 0 -205 3.4
  vertex -0.88 -205 3.284
 endloop
endfacet
facet normal 0.131 0 -0.991
 outer loop
  vertex 0 205 3.4
  vertex -0.88 -205 3.284
  vertex -0.88 205 3.284
 endloop
endfacet
facet normal 0.383 0 -0.924
 outer loop
  vertex -0.88 205 3.284
  vertex -0.88 -205 3.284
  vertex -1.7 -205 2.944
 endloop
endfacet
facet normal 0.383 0 -0.924
 outer loop
  vertex -0.88 205 3.284
  vertex -1.7 -205 2.944
  vertex -1.7 205 2.944
 endloop
endfacet
facet normal 0.609 0 -0.793
 outer loop
  vertex -1.7 205 2.944
  vertex -1.7 -205 2.944
  vertex -2.404 205 2.404
 endloop
endfacet
facet normal 0.609 0 -0.793
 outer loop
  vertex -1.7 -205 2.944
  vertex -2.404 -205 2.404
  vertex -2.404 205 2.404
 endloop
endfacet
facet normal 0.793 0 -0.609
 outer loop
  vertex -2.404 205 2.404
  vertex -2.404 -205 2.404
  vertex -2.944 -205 1.7
 endloop
endfacet
facet normal 0.793 0 -0.609
 outer loop
  vertex -2.404 205 2.404
  vertex -2.944 -205 1.7
  vertex -2.944 205 1.7
 endloop
endfacet
facet normal 0.924 0 -0.383
 outer loop
  vertex -2.944 205 1.7
  vertex -2.944 -205 1.7
  vertex -3.284 -205 0.88
 endloop
endfacet
facet normal 0 0 -1
 outer loop
  vertex -20 205 4
  vertex -19.992 205 4
  vertex -20 -205 4
 endloop
endfacet
facet normal 0 0 -1
 outer loop
  vertex -20 -205 4
  vertex -19.992 205 4
  vertex -19.992 -205 4
 endloop
endfacet
facet normal -1 -0 -0
 outer loop
  vertex -19.992 205 4
  vertex -19.992 205 -4
  vertex -19.992 -205 4
 endloop
endfacet
facet normal -1 0 0
 outer loop
  vertex -19.992 -205 4
  vertex -19.992 205 -4
  vertex -19.992 -205 -4
 endloop
endfacet
facet normal 0 0 1
 outer loop
  vertex -19.992 205 -4
  vertex -20 205 -4
  vertex -19.992 -205 -4
 endloop
endfacet
facet normal 0 0 1
 outer loop
  vertex -19.992 -205 -4
  vertex -20 205 -4
  vertex -20 -205 -4
 endloop
endfacet
facet normal 0 1 0
 outer loop
  vertex -3.284 205 -0.88
  vertex -19.992 205 -4
  vertex -3.4 205 -0
 endloop
endfacet
facet normal 0 1 0
 outer loop
  vertex -3.4 205 -0
  vertex -19.992 205 -4
  vertex -19.992 205 4
 endloop
endfacet
facet normal 0 1 -0
 outer loop
  vertex -3.4 205 -0
  vertex -19.992 205 4
  vertex -3.284 205 0.88
 endloop
endfacet
facet normal 0 1 -0
 outer loop
  vertex -3.284 205 0.88
  vertex -19.992 205 4
  vertex -2.944 205 1.7
 endloop
endfacet
facet normal 0 1 0
 outer loop
  vertex -3.284 205 -0.88
  vertex -2.944 205 -1.7
  vertex -19.992 205 -4
 endloop
endfacet
facet normal 0 1 0
 outer loop
  vertex -19.992 205 -4
  vertex -2.944 205 -1.7
  vertex -2.404 205 -2.404
 endloop
endfacet
facet normal -0 1 0
 outer loop
  vertex -19.992 205 -4
  vertex -2.404 205 -2.404
  vertex -4 205 -19.992
 endloop
endfacet
facet normal 0 1 0
 outer loop
  vertex -4 205 -19.992
  vertex -2.404 205 -2.404
  vertex -1.7 205 -2.944
 endloop
endfacet
facet normal 0 1 0
 outer loop
  vertex -4 205 -19.992
  vertex -1.7 205 -2.944
  vertex -0.88 205 -3.284
 endloop
endfacet
facet normal 0 1 0
 outer loop
  vertex -0.88 205 -3.284
  vertex 0 205 -3.4
  vertex -4 205 -19.992
 endloop
endfacet
facet normal 0 1 0
 outer loop
  vertex -4 205 -19.992
  vertex 0 205 -3.4
  vertex 4 205 -19.992
 endloop
endfacet
facet normal -0 1 0
 outer loop
  vertex 0 205 -3.4
  vertex 0.88 205 -3.284
  vertex 4 205 -19.992
 endloop
endfacet
facet normal 0 1 0
 outer loop
  vertex 4 205 -19.992
  vertex 0.88 205 -3.284
  vertex 1.7 205 -2.944
 endloop
endfacet
facet normal 0 1 0
 outer loop
  vertex 4 205 -19.992
  vertex 1.7 205 -2.944
  vertex 2.404 205 -2.404
 endloop
endfacet
facet normal 0 1 -0
 outer loop
  vertex 4 205 -19.992
  vertex 2.404 205 -2.404
  vertex 19.992 205 -4
 endloop
endfacet
facet normal 0 1 0
 outer loop
  vertex 19.992 205 -4
  vertex 2.404 205 -2.404
  vertex 2.944 205 -1.7
 endloop
endfacet
facet normal 0 1 0
 outer loop
  vertex 19.992 205 -4
  vertex 2.944 205 -1.7
  vertex 3.284 205 -0.88
 endloop
endfacet
facet normal -0 1 0
 outer loop
  vertex 3.284 205 -0.88
  vertex 3.4 205 0
  vertex 19.992 205 -4
 endloop
endfacet
facet normal 0 1 -0
 outer loop
  vertex 19.992 205 -4
  vertex 3.4 205 0
  vertex 19.992 205 4
 endloop
endfacet
facet normal 0 1 -0
 outer loop
  vertex 3.4 205 0
  vertex 3.284 205 0.88
  vertex 19.992 205 4
 endloop
endfacet
facet normal 0 1 0
 outer loop
  vertex 19.992 205 4
  vertex 3.284 205 0.88
  vertex 2.944 205 1.7
 endloop
endfacet
facet normal 0 1 0
 outer loop
  vertex 19.992 205 4
  vertex 2.944 205 1.7
  vertex 2.404 205 2.404
 endloop
endfacet
facet normal 0 1 0
 outer loop
  vertex 19.992 205 4
  vertex 2.404 205 2.404
  vertex 4 205 19.992
 endloop
endfacet
facet normal 0 1 0
 outer loop
  vertex 4 205 19.992
  vertex 2.404 205 2.404
  vertex 1.7 205 2.944
 endloop
endfacet
facet normal 0 1 0
 outer loop
  vertex 4 205 19.992
  vertex 1.7 205 2.944
  vertex 0.88 205 3.284
 endloop
endfacet
facet normal 0 1 -0
 outer loop
  vertex 0.88 205 3.284
  vertex 0 205 3.4
  vertex 4 205 19.992
 endloop
endfacet
facet normal 0 1 0
 outer loop
  vertex 4 205 19.992
  vertex 0 205 3.4
  vertex -4 205 19.992
 endloop
endfacet
facet normal 0 1 0
 outer loop
  vertex 0 205 3.4
  vertex -0.88 205 3.284
  vertex -4 205 19.992
 endloop
endfacet
facet normal 0 1 0
 outer loop
  vertex -4 205 19.992
  vertex -0.88 205 3.284
  vertex -1.7 205 2.944
 endloop
endfacet
facet normal 0 1 0
 outer loop
  vertex -4 205 19.992
  vertex -1.7 205 2.944
  vertex -2.404 205 2.404
 endloop
endfacet
facet normal 0 1 0
 outer loop
  vertex -4 205 19.992
  vertex -2.404 205 2.404
  vertex -19.992 205 4
 endloop
endfacet
facet normal 0 1 0
 outer loop
  vertex -19.992 205 4
  vertex -2.404 205 2.404
  vertex -2.944 205 1.7
 endloop
endfacet
facet normal -0 1 0
 outer loop
  vertex -20 205 -4
  vertex -19.992 205 -4
  vertex -20 205 -20
 endloop
endfacet
facet normal 0 1 0
 outer loop
  vertex -20 205 -20
  vertex -19.992 205 -4
  vertex -4 205 -19.992
 endloop
endfacet
facet normal 0 1 0
 outer loop
  vertex -20 205 -20
  vertex -4 205 -19.992
  vertex -4 205 -20
 endloop
endfacet
facet normal 0 1 0
 outer loop
  vertex -20 205 4
  vertex -20 205 20
  vertex -19.992 205 4
 endloop
endfacet
facet normal 0 1 -0
 outer loop
  vertex -19.992 205 4
  vertex -20 205 20
  vertex -4 205 19.992
 endloop
endfacet
facet normal -0 1 0
 outer loop
  vertex -20 205 20
  vertex -4 205 20
  vertex -4 205 19.992
 endloop
endfacet
facet normal -0 1 0
 outer loop
  vertex 4 205 20
  vertex 20 205 20
  vertex 4 205 19.992
 endloop
endfacet
facet normal -0 1 0
 outer loop
  vertex 4 205 19.992
  vertex 20 205 20
  vertex 19.992 205 4
 endloop
endfacet
facet normal 0 1 0
 outer loop
  vertex 20 205 20
  vertex 20 205 4
  vertex 19.992 205 4
 endloop
endfacet
facet normal 0 1 0
 outer loop
  vertex 20 205 -4
  vertex 20 205 -20
  vertex 19.992 205 -4
 endloop
endfacet
facet normal 0 1 0
 outer loop
  vertex 19.992 205 -4
  vertex 20 205 -20
  vertex 4 205 -19.992
 endloop
endfacet
facet normal 0 1 0
 outer loop
  vertex 20 205 -20
  vertex 4 205 -20
  vertex 4 205 -19.992
 endloop
endfacet
facet normal -1 0 0
 outer loop
  vertex -20 -205 4
  vertex -20 -205 20
  vertex -20 205 4
 endloop
endfacet
facet normal -1 0 0
 outer loop
  vertex -20 205 4
  vertex -20 -205 20
  vertex -20 205 20
 endloop
endfacet
facet normal -1 -0 -0
 outer loop
  vertex 4 205 20
  vertex 4 205 19.992
  vertex 4 -205 20
 endloop
endfacet
facet normal -1 0 0
 outer loop
  vertex 4 -205 20
  vertex 4 205 19.992
  vertex 4 -205 19.992
 endloop
endfacet
facet normal 0 0 1
 outer loop
  vertex 4 205 19.992
  vertex -4 205 19.992
  vertex 4 -205 19.992
 endloop
endfacet
facet normal 0 0 1
 outer loop
  vertex 4 -205 19.992
  vertex -4 205 19.992
  vertex -4 -205 19.992
 endloop
endfacet
facet normal 1 0 -0
 outer loop
  vertex -4 205 19.992
  vertex -4 205 20
  vertex -4 -205 19.992
 endloop
endfacet
facet normal 1 0 0
 outer loop
  vertex -4 -205 19.992
  vertex -4 205 20
  vertex -4 -205 20
 endloop
endfacet
facet normal 0 0 1
 outer loop
  vertex 4 -205 20
  vertex 20 -205 20
  vertex 4 205 20
 endloop
endfacet
facet normal -0 0 1
 outer loop
  vertex 4 205 20
  vertex 20 -205 20
  vertex 20 205 20
 endloop
endfacet
facet normal 0 0 1
 outer loop
  vertex 20 205 -4
  vertex 19.992 205 -4
  vertex 20 -205 -4
 endloop
endfacet
facet normal 0 0 1
 outer loop
  vertex 20 -205 -4
  vertex 19.992 205 -4
  vertex 19.992 -205 -4
 endloop
endfacet
facet normal 1 0 -0
 outer loop
  vertex 19.992 205 -4
  vertex 19.992 205 4
  vertex 19.992 -205 -4
 endloop
endfacet
facet normal 1 0 0
 outer loop
  vertex 19.992 -205 -4
  vertex 19.992 205 4
  vertex 19.992 -205 4
 endloop
endfacet
facet normal 0 0 -1
 outer loop
  vertex 19.992 205 4
  vertex 20 205 4
  vertex 19.992 -205 4
 endloop
endfacet
facet normal 0 0 -1
 outer loop
  vertex 19.992 -205 4
  vertex 20 205 4
  vertex 20 -205 4
 endloop
endfacet
facet normal 1 -0 0
 outer loop
  vertex 20 -205 -4
  vertex 20 -205 -20
  vertex 20 205 -4
 endloop
endfacet
facet normal 1 0 0
 outer loop
  vertex 20 205 -4
  vertex 20 -205 -20
  vertex 20 205 -20
 endloop
endfacet
facet normal -1 0 0
 outer loop
  vertex 4 -205 -20
  vertex 4 -205 -19.992
  vertex 4 205 -20
 endloop
endfacet
facet normal -1 0 0
 outer loop
  vertex 4 205 -20
  vertex 4 -205 -19.992
  vertex 4 205 -19.992
 endloop
endfacet
facet normal 0 0 -1
 outer loop
  vertex 4 -205 -19.992
  vertex -4 -205 -19.992
  vertex 4 205 -19.992
 endloop
endfacet
facet normal -0 0 -1
 outer loop
  vertex 4 205 -19.992
  vertex -4 -205 -19.992
  vertex -4 205 -19.992
 endloop
endfacet
facet normal 1 -0 0
 outer loop
  vertex -4 -205 -19.992
  vertex -4 -205 -20
  vertex -4 205 -19.992
 endloop
endfacet
facet normal 1 0 0
 outer loop
  vertex -4 205 -19.992
  vertex -4 -205 -20
  vertex -4 205 -20
 endloop
endfacet
facet normal 0 0 -1
 outer loop
  vertex -4 -205 -20
  vertex -20 -205 -20
  vertex -4 205 -20
 endloop
endfacet
facet normal -0 0 -1
 outer loop
  vertex -4 205 -20
  vertex -20 -205 -20
  vertex -20 205 -20
 endloop
endfacet
facet normal 0 0 -1
 outer loop
  vertex 4 205 -20
  vertex 20 205 -20
  vertex 4 -205 -20
 endloop
endfacet
facet normal 0 0 -1
 outer loop
  vertex 4 -205 -20
  vertex 20 205 -20
  vertex 20 -205 -20
 endloop
endfacet
facet normal -1 -0 -0
 outer loop
  vertex -20 205 -4
  vertex -20 205 -20
  vertex -20 -205 -4
 endloop
endfacet
facet normal -1 0 0
 outer loop
  vertex -20 -205 -4
  vertex -20 205 -20
  vertex -20 -205 -20
 endloop
endfacet
facet normal 0 0 1
 outer loop
  vertex -4 205 20
  vertex -20 205 20
  vertex -4 -205 20
 endloop
endfacet
facet normal 0 0 1
 outer loop
  vertex -4 -205 20
  vertex -20 205 20
  vertex -20 -205 20
 endloop
endfacet
facet normal 1 0 -0
 outer loop
  vertex 20 205 4
  vertex 20 205 20
  vertex 20 -205 4
 endloop
endfacet
facet normal 1 0 0
 outer loop
  vertex 20 -205 4
  vertex 20 205 20
  vertex 20 -205 20
 endloop
endfacet
facet normal -0 -1 0
 outer loop
  vertex -3.284 -205 0.88
  vertex -19.992 -205 4
  vertex -3.4 -205 0
 endloop
endfacet
facet normal -0 -1 0
 outer loop
  vertex -3.4 -205 0
  vertex -19.992 -205 4
  vertex -19.992 -205 -4
 endloop
endfacet
facet normal 0 -1 -0
 outer loop
  vertex -3.4 -205 0
  vertex -19.992 -205 -4
  vertex -3.284 -205 -0.88
 endloop
endfacet
facet normal 0 -1 -0
 outer loop
  vertex -3.284 -205 -0.88
  vertex -19.992 -205 -4
  vertex -2.944 -205 -1.7
 endloop
endfacet
facet normal 0 -1 0
 outer loop
  vertex -3.284 -205 0.88
  vertex -2.944 -205 1.7
  vertex -19.992 -205 4
 endloop
endfacet
facet normal 0 -1 0
 outer loop
  vertex -19.992 -205 4
  vertex -2.944 -205 1.7
  vertex -2.404 -205 2.404
 endloop
endfacet
facet normal 0 -1 0
 outer loop
  vertex -19.992 -205 4
  vertex -2.404 -205 2.404
  vertex -4 -205 19.992
 endloop
endfacet
facet normal 0 -1 0
 outer loop
  vertex -4 -205 19.992
  vertex -2.404 -205 2.404
  vertex -1.7 -205 2.944
 endloop
endfacet
facet normal 0 -1 0
 outer loop
  vertex -4 -205 19.992
  vertex -1.7 -205 2.944
  vertex -0.88 -205 3.284
 endloop
endfacet
facet normal 0 -1 0
 outer loop
  vertex -0.88 -205 3.284
  vertex 0 -205 3.4
  vertex -4 -205 19.992
 endloop
endfacet
facet normal 0 -1 0
 outer loop
  vertex -4 -205 19.992
  vertex 0 -205 3.4
  vertex 4 -205 19.992
 endloop
endfacet
facet normal 0 -1 0
 outer loop
  vertex 0 -205 3.4
  vertex 0.88 -205 3.284
  vertex 4 -205 19.992
 endloop
endfacet
facet normal 0 -1 0
 outer loop
  vertex 4 -205 19.992
  vertex 0.88 -205 3.284
  vertex 1.7 -205 2.944
 endloop
endfacet
facet normal 0 -1 0
 outer loop
  vertex 4 -205 19.992
  vertex 1.7 -205 2.944
  vertex 2.404 -205 2.404
 endloop
endfacet
facet normal 0 -1 -0
 outer loop
  vertex 4 -205 19.992
  vertex 2.404 -205 2.404
  vertex 19.992 -205 4
 endloop
endfacet
facet normal 0 -1 0
 outer loop
  vertex 19.992 -205 4
  vertex 2.404 -205 2.404
  vertex 2.944 -205 1.7
 endloop
endfacet
facet normal 0 -1 0
 outer loop
  vertex 19.992 -205 4
  vertex 2.944 -205 1.7
  vertex 3.284 -205 0.88
 endloop
endfacet
facet normal 0 -1 0
 outer loop
  vertex 3.284 -205 0.88
  vertex 3.4 -205 0
  vertex 19.992 -205 4
 endloop
endfacet
facet normal 0 -1 -0
 outer loop
  vertex 19.992 -205 4
  vertex 3.4 -205 0
  vertex 19.992 -205 -4
 endloop
endfacet
facet normal 0 -1 -0
 outer loop
  vertex 3.4 -205 0
  vertex 3.284 -205 -0.88
  vertex 19.992 -205 -4
 endloop
endfacet
facet normal 0 -1 0
 outer loop
  vertex 19.992 -205 -4
  vertex 3.284 -205 -0.88
  vertex 2.944 -205 -1.7
 endloop
endfacet
facet normal 0 -1 0
 outer loop
  vertex 19.992 -205 -4
  vertex 2.944 -205 -1.7
  vertex 2.404 -205 -2.404
 endloop
endfacet
facet normal -0 -1 0
 outer loop
  vertex 19.992 -205 -4
  vertex 2.404 -205 -2.404
  vertex 4 -205 -19.992
 endloop
endfacet
facet normal 0 -1 0
 outer loop
  vertex 4 -205 -19.992
  vertex 2.404 -205 -2.404
  vertex 1.7 -205 -2.944
 endloop
endfacet
facet normal 0 -1 0
 outer loop
  vertex 4 -205 -19.992
  vertex 1.7 -205 -2.944
  vertex 0.88 -205 -3.284
 endloop
endfacet
facet normal 0 -1 -0
 outer loop
  vertex 0.88 -205 -3.284
  vertex 0 -205 -3.4
  vertex 4 -205 -19.992
 endloop
endfacet
facet normal 0 -1 0
 outer loop
  vertex 4 -205 -19.992
  vertex 0 -205 -3.4
  vertex -4 -205 -19.992
 endloop
endfacet
facet normal -0 -1 0
 outer loop
  vertex 0 -205 -3.4
  vertex -0.88 -205 -3.284
  vertex -4 -205 -19.992
 endloop
endfacet
facet normal 0 -1 0
 outer loop
  vertex -4 -205 -19.992
  vertex -0.88 -205 -3.284
  vertex -1.7 -205 -2.944
 endloop
endfacet
facet normal 0 -1 0
 outer loop
  vertex -4 -205 -19.992
  vertex -1.7 -205 -2.944
  vertex -2.404 -205 -2.404
 endloop
endfacet
facet normal 0 -1 0
 outer loop
  vertex -4 -205 -19.992
  vertex -2.404 -205 -2.404
  vertex -19.992 -205 -4
 endloop
endfacet
facet normal 0 -1 0
 outer loop
  vertex -19.992 -205 -4
  vertex -2.404 -205 -2.404
  vertex -2.944 -205 -1.7
 endloop
endfacet
facet normal 0 -1 0
 outer loop
  vertex -20 -205 -4
  vertex -20 -205 -20
  vertex -19.992 -205 -4
 endloop
endfacet
facet normal 0 -1 -0
 outer loop
  vertex -19.992 -205 -4
  vertex -20 -205 -20
  vertex -4 -205 -19.992
 endloop
endfacet
facet normal 0 -1 0
 outer loop
  vertex -20 -205 -20
  vertex -4 -205 -20
  vertex -4 -205 -19.992
 endloop
endfacet
facet normal 0 -1 0
 outer loop
  vertex 4 -205 -20
  vertex 20 -205 -20
  vertex 4 -205 -19.992
 endloop
endfacet
facet normal 0 -1 0
 outer loop
  vertex 4 -205 -19.992
  vertex 20 -205 -20
  vertex 19.992 -205 -4
 endloop
endfacet
facet normal 0 -1 0
 outer loop
  vertex 20 -205 -20
  vertex 20 -205 -4
  vertex 19.992 -205 -4
 endloop
endfacet
facet normal 0 -1 0
 outer loop
  vertex 20 -205 4
  vertex 20 -205 20
  vertex 19.992 -205 4
 endloop
endfacet
facet normal 0 -1 0
 outer loop
  vertex 19.992 -205 4
  vertex 20 -205 20
  vertex 4 -205 19.992
 endloop
endfacet
facet normal -0 -1 0
 outer loop
  vertex 20 -205 20
  vertex 4 -205 20
  vertex 4 -205 19.992
 endloop
endfacet
facet normal -0 -1 -0
 outer loop
  vertex -4 -205 20
  vertex -20 -205 20
  vertex -4 -205 19.992
 endloop
endfacet
facet normal -0 -1 0
 outer loop
  vertex -4 -205 19.992
  vertex -20 -205 20
  vertex -19.992 -205 4
 endloop
endfacet
facet normal 0 -1 0
 outer loop
  vertex -20 -205 20
  vertex -20 -205 4
  vertex -19.992 -205 4
 endloop
endfacet
endsolid CADClick
